<?xml version="1.0" encoding="UTF-8"?>
<svg id="Capa_1" xmlns="http://www.w3.org/2000/svg" version="1.1" viewBox="0 0 800 489.19">
  <!-- Generator: Adobe Illustrator 29.4.0, SVG Export Plug-In . SVG Version: 2.1.0 Build 152)  -->
  <defs>
    <style>
      .st0, .st1, .st2 {
        fill: #fff;
      }

      .st0, .st3, .st4 {
        stroke: #2ca02c;
      }

      .st5 {
        stroke: #000;
      }

      .st5, .st6, .st7, .st8, .st3, .st9, .st10, .st11, .st12, .st13, .st14, .st15, .st16, .st4 {
        fill: none;
      }

      .st6, .st7, .st3, .st11, .st12, .st16 {
        stroke-dasharray: 4;
      }

      .st6, .st10 {
        stroke: #1f77b4;
      }

      .st7, .st14 {
        stroke: #d62728;
      }

      .st8, .st1, .st16 {
        stroke: #ff7f0e;
      }

      .st17 {
        font-family: HelveticaNowDisplay-Regular, 'Helvetica Now Display';
      }

      .st17, .st18, .st19 {
        isolation: isolate;
      }

      .st17, .st19 {
        font-size: 10px;
      }

      .st20 {
        fill: #8c564b;
      }

      .st21 {
        fill: #2ca02c;
      }

      .st9 {
        stroke: #fff;
      }

      .st22 {
        fill: #d62728;
      }

      .st11, .st2, .st15 {
        stroke: #8c564b;
      }

      .st18 {
        fill: #7b7b7b;
        font-family: Arial-BoldMT, Arial;
        font-size: 12px;
        font-weight: 700;
      }

      .st12, .st13 {
        stroke: #9467bd;
      }

      .st19 {
        font-family: ArialMT, Arial;
      }

      .st23 {
        fill: #1f77b4;
      }

      .st24 {
        fill: #9467bd;
      }

      .st25 {
        fill: #ff7f0e;
      }
    </style>
  </defs>
  <path class="st5" d="M44,414.6h6V54.6h-6"/>
  <g>
    <line class="st5" x1="50" y1="414.6" x2="44" y2="414.6"/>
    <text class="st17" transform="translate(27.81 417.8)"><tspan x="0" y="0">4.0</tspan></text>
  </g>
  <g>
    <line class="st5" x1="50" y1="390.6" x2="44" y2="390.6"/>
    <text class="st17" transform="translate(28.19 393.8)"><tspan x="0" y="0">4.2</tspan></text>
  </g>
  <g>
    <line class="st5" x1="50" y1="366.6" x2="44" y2="366.6"/>
    <text class="st17" transform="translate(28.05 369.8)"><tspan x="0" y="0">4.4</tspan></text>
  </g>
  <g>
    <line class="st5" x1="50" y1="342.6" x2="44" y2="342.6"/>
    <text class="st17" transform="translate(27.94 345.8)"><tspan x="0" y="0">4.6</tspan></text>
  </g>
  <g>
    <line class="st5" x1="50" y1="318.6" x2="44" y2="318.6"/>
    <text class="st17" transform="translate(27.71 321.8)"><tspan x="0" y="0">4.8</tspan></text>
  </g>
  <g>
    <line class="st5" x1="50" y1="294.6" x2="44" y2="294.6"/>
    <text class="st17" transform="translate(27.94 297.8)"><tspan x="0" y="0">5.0</tspan></text>
  </g>
  <g>
    <line class="st5" x1="50" y1="270.6" x2="44" y2="270.6"/>
    <text class="st17" transform="translate(28.32 273.8)"><tspan x="0" y="0">5.2</tspan></text>
  </g>
  <g>
    <line class="st5" x1="50" y1="246.6" x2="44" y2="246.6"/>
    <text class="st17" transform="translate(28.18 249.8)"><tspan x="0" y="0">5.4</tspan></text>
  </g>
  <g>
    <line class="st5" x1="50" y1="222.6" x2="44" y2="222.6"/>
    <text class="st17" transform="translate(28.07 225.8)"><tspan x="0" y="0">5.6</tspan></text>
  </g>
  <g>
    <line class="st5" x1="50" y1="198.6" x2="44" y2="198.6"/>
    <text class="st17" transform="translate(27.84 201.8)"><tspan x="0" y="0">5.8</tspan></text>
  </g>
  <g>
    <line class="st5" x1="50" y1="174.6" x2="44" y2="174.6"/>
    <text class="st17" transform="translate(27.7 177.8)"><tspan x="0" y="0">6.0</tspan></text>
  </g>
  <g>
    <line class="st5" x1="50" y1="150.6" x2="44" y2="150.6"/>
    <text class="st17" transform="translate(28.08 153.8)"><tspan x="0" y="0">6.2</tspan></text>
  </g>
  <g>
    <line class="st5" x1="50" y1="126.6" x2="44" y2="126.6"/>
    <text class="st17" transform="translate(27.94 129.8)"><tspan x="0" y="0">6.4</tspan></text>
  </g>
  <g>
    <line class="st5" x1="50" y1="102.6" x2="44" y2="102.6"/>
    <text class="st17" transform="translate(27.83 105.8)"><tspan x="0" y="0">6.6</tspan></text>
  </g>
  <g>
    <line class="st5" x1="50" y1="78.6" x2="44" y2="78.6"/>
    <text class="st17" transform="translate(27.6 81.8)"><tspan x="0" y="0">6.8</tspan></text>
  </g>
  <g>
    <line class="st5" x1="50" y1="54.6" x2="44" y2="54.6"/>
    <text class="st17" transform="translate(29.46 57.8)"><tspan x="0" y="0">7.0</tspan></text>
  </g>
  <text class="st18" transform="translate(23.13 38.57)"><tspan x="0" y="0">Nota proyecto</tspan></text>
  <path class="st5" d="M50,420.6v-6h740v6"/>
  <line class="st5" x1="113" y1="414.6" x2="113" y2="420.6"/>
  <text class="st17" transform="translate(90.3 433.51)"><tspan x="0" y="0">Diseñador</tspan></text>
  <line class="st5" x1="236" y1="414.6" x2="236" y2="420.6"/>
  <text class="st17" transform="translate(209.6 433.39)"><tspan x="0" y="0">Diseñadora</tspan></text>
  <line class="st5" x1="359" y1="414.6" x2="359" y2="420.6"/>
  <text class="st17" transform="translate(327.53 432.09)"><tspan x="0" y="0">Diseñador con </tspan><tspan x="6.32" y="12">mención en </tspan><tspan x="5.73" y="24">Visualidad y </tspan><tspan x="15.43" y="36">Medios</tspan></text>
  <text class="st17" transform="translate(457.03 432.09)"><tspan x="0" y="0">Diseñadora </tspan><tspan x="-2.91" y="12">con mención </tspan><tspan x="-3.81" y="24">en Visualidad </tspan><tspan x="5.58" y="36">y Medios</tspan></text>
  <text class="st17" transform="translate(572.53 432.09)"><tspan x="0" y="0">Diseñador con </tspan><tspan x="-7.93" y="12">mención Industrial </tspan><tspan x="8.26" y="24">y Servicios</tspan></text>
  <text class="st17" transform="translate(693.92 432.09)"><tspan x="0" y="0">Diseñadora con </tspan><tspan x="-5.32" y="12">mención Industrial </tspan><tspan x="10.86" y="24">y Servicios</tspan></text>
  <line class="st5" x1="482" y1="414.6" x2="482" y2="420.6"/>
  <line class="st5" x1="605" y1="414.6" x2="605" y2="420.6"/>
  <line class="st5" x1="728" y1="414.6" x2="728" y2="420.6"/>
  <g id="boxplots">
    <g>
      <line class="st6" x1="113" y1="54.6" x2="113" y2="330.6"/>
      <line class="st10" x1="103" y1="54.6" x2="123" y2="54.6"/>
      <line class="st10" x1="103" y1="330.6" x2="123" y2="330.6"/>
      <rect class="st23" x="103" y="150.6" width="20" height="84"/>
      <line class="st9" x1="103" y1="174.6" x2="123" y2="174.6"/>
    </g>
    <g>
      <line class="st7" x1="236" y1="54.6" x2="236" y2="354.6"/>
      <line class="st14" x1="226" y1="54.6" x2="246" y2="54.6"/>
      <line class="st14" x1="226" y1="354.6" x2="246" y2="354.6"/>
      <rect class="st22" x="226" y="96.6" width="20" height="120"/>
      <line class="st9" x1="226" y1="174.6" x2="246" y2="174.6"/>
    </g>
    <g>
      <line class="st3" x1="359" y1="114.6" x2="359" y2="324.6"/>
      <line class="st4" x1="349" y1="114.6" x2="369" y2="114.6"/>
      <line class="st4" x1="349" y1="324.6" x2="369" y2="324.6"/>
      <rect class="st21" x="349" y="174.6" width="20" height="60"/>
      <line class="st9" x1="349" y1="198.6" x2="369" y2="198.6"/>
      <circle class="st0" cx="359" cy="354.6" r="1"/>
      <circle class="st0" cx="359" cy="354.6" r="1"/>
      <circle class="st0" cx="359" cy="414.6" r="1"/>
    </g>
    <g>
      <line class="st11" x1="482" y1="54.6" x2="482" y2="399.6"/>
      <line class="st15" x1="472" y1="54.6" x2="492" y2="54.6"/>
      <line class="st15" x1="472" y1="399.6" x2="492" y2="399.6"/>
      <rect class="st20" x="472" y="114.6" width="20" height="114"/>
      <line class="st9" x1="472" y1="174.6" x2="492" y2="174.6"/>
      <circle class="st2" cx="482" cy="414.6" r="1"/>
      <circle class="st2" cx="482" cy="414.6" r="1"/>
    </g>
    <g>
      <line class="st16" x1="605" y1="81.6" x2="605" y2="297.6"/>
      <line class="st8" x1="595" y1="81.6" x2="615" y2="81.6"/>
      <line class="st8" x1="595" y1="297.6" x2="615" y2="297.6"/>
      <rect class="st25" x="595" y="162.6" width="20" height="54"/>
      <line class="st9" x1="595" y1="186.6" x2="615" y2="186.6"/>
      <circle class="st1" cx="605" cy="354.6" r="1"/>
      <circle class="st1" cx="605" cy="78.6" r="1"/>
    </g>
    <g>
      <line class="st12" x1="728" y1="54.6" x2="728" y2="414.6"/>
      <line class="st13" x1="718" y1="54.6" x2="738" y2="54.6"/>
      <line class="st13" x1="718" y1="414.6" x2="738" y2="414.6"/>
      <rect class="st24" x="718" y="96.6" width="20" height="138"/>
      <line class="st9" x1="718" y1="174.6" x2="738" y2="174.6"/>
    </g>
  </g>
  <g id="boxplots1" data-name="boxplots">
    <g>
      <text class="st19" transform="translate(127 54.6)"><tspan x="0" y="0">7</tspan></text>
      <text class="st19" transform="translate(127 330.6)"><tspan x="0" y="0">4.7</tspan></text>
      <text class="st19" transform="translate(127 174.6)"><tspan x="0" y="0">6</tspan></text>
      <text class="st19" transform="translate(85.1 234.6)"><tspan x="0" y="0">5.5</tspan></text>
      <text class="st19" transform="translate(95.1 150.6)"><tspan x="0" y="0">6.2</tspan></text>
    </g>
    <g>
      <text class="st19" transform="translate(250 54.6)"><tspan x="0" y="0">7</tspan></text>
      <text class="st19" transform="translate(250 354.6)"><tspan x="0" y="0">4.5</tspan></text>
      <text class="st19" transform="translate(250 174.6)"><tspan x="0" y="0">6</tspan></text>
      <text class="st19" transform="translate(202.54 216.6)"><tspan x="0" y="0">5.65</tspan></text>
      <text class="st19" transform="translate(212.54 96.6)"><tspan x="0" y="0">6.65</tspan></text>
    </g>
    <g>
      <text class="st19" transform="translate(373 114.6)"><tspan x="0" y="0">6.5</tspan></text>
      <text class="st19" transform="translate(373 324.6)"><tspan x="0" y="0">4.75</tspan></text>
      <text class="st19" transform="translate(373 198.6)"><tspan x="0" y="0">5.8</tspan></text>
      <text class="st19" transform="translate(331.1 234.6)"><tspan x="0" y="0">5.5</tspan></text>
      <text class="st19" transform="translate(349.44 174.6)"><tspan x="0" y="0">6</tspan></text>
    </g>
    <g>
      <text class="st19" transform="translate(496 54.6)"><tspan x="0" y="0">7</tspan></text>
      <text class="st19" transform="translate(496 399.6)"><tspan x="0" y="0">4.125</tspan></text>
      <text class="st19" transform="translate(496 174.6)"><tspan x="0" y="0">6</tspan></text>
      <text class="st19" transform="translate(448.54 228.6)"><tspan x="0" y="0">5.55</tspan></text>
      <text class="st19" transform="translate(464.1 114.6)"><tspan x="0" y="0">6.5</tspan></text>
    </g>
    <g>
      <text class="st19" transform="translate(619 81.6)"><tspan x="0" y="0">6.77</tspan></text>
      <text class="st19" transform="translate(619 297.6)"><tspan x="0" y="0">4.97</tspan></text>
      <text class="st19" transform="translate(619 186.6)"><tspan x="0" y="0">5.9</tspan></text>
      <text class="st19" transform="translate(571.54 216.6)"><tspan x="0" y="0">5.65</tspan></text>
      <text class="st19" transform="translate(587.1 162.6)"><tspan x="0" y="0">6.1</tspan></text>
    </g>
    <g>
      <text class="st19" transform="translate(742 54.6)"><tspan x="0" y="0">7</tspan></text>
      <text class="st19" transform="translate(742 414.6)"><tspan x="0" y="0">4</tspan></text>
      <text class="st19" transform="translate(742 174.6)"><tspan x="0" y="0">6</tspan></text>
      <text class="st19" transform="translate(700.1 234.6)"><tspan x="0" y="0">5.5</tspan></text>
      <text class="st19" transform="translate(703.73 96.6)"><tspan x="0" y="0">6.7</tspan></text>
    </g>
  </g>
</svg>